<svg width="121" height="54" viewBox="0 0 121 54" fill="none" xmlns="http://www.w3.org/2000/svg">
<mask id="path-1-outside-1_0_1" maskUnits="userSpaceOnUse" x="-1" y="-1" width="123" height="30" fill="black">
<rect fill="white" x="-1" y="-1" width="123" height="30"/>
<path d="M11.9423 27.324C8.58233 27.324 5.89433 26.58 3.87833 25.092C1.86233 23.58 0.686328 21.456 0.350328 18.72H5.67833C5.84633 20.112 6.51833 21.216 7.69433 22.032C8.87033 22.824 10.3703 23.22 12.1943 23.22C13.6823 23.22 14.8223 22.956 15.6143 22.428C16.4303 21.9 16.8383 21.192 16.8383 20.304C16.8383 19.464 16.5983 18.792 16.1183 18.288C15.6383 17.76 14.8103 17.34 13.6343 17.028L8.81033 15.696C6.33833 15 4.52633 14.052 3.37433 12.852C2.24633 11.628 1.68233 10.104 1.68233 8.28C1.68233 6.72 2.07833 5.376 2.87033 4.248C3.68633 3.096 4.82633 2.22 6.29033 1.62C7.75433 0.995999 9.47033 0.684 11.4383 0.684C14.4623 0.684 16.8743 1.404 18.6743 2.844C20.4743 4.26 21.4943 6.144 21.7343 8.496H16.4063C16.1663 7.224 15.5783 6.288 14.6423 5.688C13.7303 5.088 12.5543 4.788 11.1143 4.788C9.86633 4.788 8.87033 5.028 8.12633 5.508C7.38233 5.988 7.01033 6.636 7.01033 7.452C7.01033 8.076 7.21433 8.652 7.62233 9.18C8.03033 9.684 8.88233 10.116 10.1783 10.476L15.0023 11.808C17.5463 12.504 19.3703 13.464 20.4743 14.688C21.6023 15.888 22.1663 17.412 22.1663 19.26C22.1663 21.852 21.2663 23.844 19.4663 25.236C17.6663 26.628 15.1583 27.324 11.9423 27.324ZM24.7707 27V1.08H30.3147V27H24.7707ZM41.5467 27V1.08H47.0907V27H41.5467ZM27.3627 11.376H44.0667V15.624H27.3627V11.376ZM49.7449 27L59.0329 1.08H63.7849L55.2529 27H49.7449ZM68.7529 27L60.2569 1.08H65.2249L74.5129 27H68.7529ZM54.6409 16.956H69.1849V21.276H54.6409V16.956ZM76.5876 27V1.08H88.1796C90.0516 1.08 91.6836 1.404 93.0756 2.052C94.4676 2.676 95.5476 3.564 96.3156 4.716C97.0836 5.868 97.4676 7.212 97.4676 8.748C97.4676 10.26 97.0836 11.592 96.3156 12.744C95.5476 13.872 94.4676 14.76 93.0756 15.408C91.6836 16.032 90.0516 16.344 88.1796 16.344H80.9796V12.276H88.0356C89.3556 12.276 90.3636 11.976 91.0596 11.376C91.7796 10.752 92.1396 9.888 92.1396 8.784C92.1396 7.656 91.7916 6.804 91.0956 6.228C90.3996 5.628 89.3796 5.328 88.0356 5.328H82.1316V27H76.5876ZM91.2036 27L80.7996 13.536H86.6676L98.6916 27H91.2036ZM100.779 27V1.08H106.323V27H100.779ZM103.371 27V22.752H120.075V27H103.371ZM103.371 15.84V11.664H118.815V15.84H103.371ZM103.371 5.328V1.08H119.643V5.328H103.371Z"/>
</mask>
<path d="M11.9423 27.324C8.58233 27.324 5.89433 26.58 3.87833 25.092C1.86233 23.58 0.686328 21.456 0.350328 18.72H5.67833C5.84633 20.112 6.51833 21.216 7.69433 22.032C8.87033 22.824 10.3703 23.22 12.1943 23.22C13.6823 23.22 14.8223 22.956 15.6143 22.428C16.4303 21.9 16.8383 21.192 16.8383 20.304C16.8383 19.464 16.5983 18.792 16.1183 18.288C15.6383 17.76 14.8103 17.34 13.6343 17.028L8.81033 15.696C6.33833 15 4.52633 14.052 3.37433 12.852C2.24633 11.628 1.68233 10.104 1.68233 8.28C1.68233 6.72 2.07833 5.376 2.87033 4.248C3.68633 3.096 4.82633 2.22 6.29033 1.62C7.75433 0.995999 9.47033 0.684 11.4383 0.684C14.4623 0.684 16.8743 1.404 18.6743 2.844C20.4743 4.26 21.4943 6.144 21.7343 8.496H16.4063C16.1663 7.224 15.5783 6.288 14.6423 5.688C13.7303 5.088 12.5543 4.788 11.1143 4.788C9.86633 4.788 8.87033 5.028 8.12633 5.508C7.38233 5.988 7.01033 6.636 7.01033 7.452C7.01033 8.076 7.21433 8.652 7.62233 9.18C8.03033 9.684 8.88233 10.116 10.1783 10.476L15.0023 11.808C17.5463 12.504 19.3703 13.464 20.4743 14.688C21.6023 15.888 22.1663 17.412 22.1663 19.26C22.1663 21.852 21.2663 23.844 19.4663 25.236C17.6663 26.628 15.1583 27.324 11.9423 27.324ZM24.7707 27V1.08H30.3147V27H24.7707ZM41.5467 27V1.08H47.0907V27H41.5467ZM27.3627 11.376H44.0667V15.624H27.3627V11.376ZM49.7449 27L59.0329 1.08H63.7849L55.2529 27H49.7449ZM68.7529 27L60.2569 1.08H65.2249L74.5129 27H68.7529ZM54.6409 16.956H69.1849V21.276H54.6409V16.956ZM76.5876 27V1.08H88.1796C90.0516 1.08 91.6836 1.404 93.0756 2.052C94.4676 2.676 95.5476 3.564 96.3156 4.716C97.0836 5.868 97.4676 7.212 97.4676 8.748C97.4676 10.26 97.0836 11.592 96.3156 12.744C95.5476 13.872 94.4676 14.76 93.0756 15.408C91.6836 16.032 90.0516 16.344 88.1796 16.344H80.9796V12.276H88.0356C89.3556 12.276 90.3636 11.976 91.0596 11.376C91.7796 10.752 92.1396 9.888 92.1396 8.784C92.1396 7.656 91.7916 6.804 91.0956 6.228C90.3996 5.628 89.3796 5.328 88.0356 5.328H82.1316V27H76.5876ZM91.2036 27L80.7996 13.536H86.6676L98.6916 27H91.2036ZM100.779 27V1.08H106.323V27H100.779ZM103.371 27V22.752H120.075V27H103.371ZM103.371 15.84V11.664H118.815V15.84H103.371ZM103.371 5.328V1.08H119.643V5.328H103.371Z" fill="#EF3C23"/>
<path d="M3.87833 25.092L3.27831 25.892L3.28448 25.8966L3.87833 25.092ZM0.350328 18.72V17.72H-0.779992L-0.642215 18.8419L0.350328 18.72ZM5.67833 18.72L6.67112 18.6002L6.5649 17.72H5.67833V18.72ZM7.69433 22.032L7.12419 22.8537L7.13573 22.8614L7.69433 22.032ZM15.6143 22.428L15.071 21.5884L15.0596 21.5959L15.6143 22.428ZM16.1183 18.288L15.3784 18.9607L15.3862 18.9693L15.3942 18.9777L16.1183 18.288ZM13.6343 17.028L13.3682 17.992L13.3779 17.9946L13.6343 17.028ZM8.81033 15.696L8.53931 16.6586L8.54417 16.6599L8.81033 15.696ZM3.37433 12.852L2.63897 13.5297L2.64588 13.5372L2.65294 13.5445L3.37433 12.852ZM2.87033 4.248L2.0543 3.66998L2.05192 3.67337L2.87033 4.248ZM6.29033 1.62L6.66959 2.54539L6.68243 2.53992L6.29033 1.62ZM18.6743 2.844L18.0496 3.6249L18.056 3.62995L18.6743 2.844ZM21.7343 8.496V9.496H22.8416L22.7292 8.39449L21.7343 8.496ZM16.4063 8.496L15.4237 8.68141L15.5774 9.496H16.4063V8.496ZM14.6423 5.688L14.0927 6.52348L14.1027 6.52988L14.6423 5.688ZM8.12633 5.508L8.66846 6.3483L8.66846 6.3483L8.12633 5.508ZM7.62233 9.18L6.83104 9.79145L6.83796 9.8004L6.84508 9.8092L7.62233 9.18ZM10.1783 10.476L9.91068 11.4395L9.91217 11.4399L10.1783 10.476ZM15.0023 11.808L14.7362 12.7719L14.7384 12.7726L15.0023 11.808ZM20.4743 14.688L19.7318 15.3578L19.7387 15.3654L19.7457 15.3729L20.4743 14.688ZM19.4663 25.236L18.8546 24.4449H18.8546L19.4663 25.236ZM11.9423 26.324C8.72399 26.324 6.26607 25.6115 4.47218 24.2874L3.28448 25.8966C5.52259 27.5485 8.44067 28.324 11.9423 28.324V26.324ZM4.47833 24.292C2.7016 22.9595 1.64916 21.0922 1.34287 18.5981L-0.642215 18.8419C-0.276502 21.8198 1.02306 24.2005 3.27833 25.892L4.47833 24.292ZM0.350328 19.72H5.67833V17.72H0.350328V19.72ZM4.68553 18.8398C4.88856 20.5221 5.71919 21.8787 7.12425 22.8536L8.26441 21.2104C7.31747 20.5533 6.80409 19.7019 6.67112 18.6002L4.68553 18.8398ZM7.13573 22.8614C8.51824 23.7925 10.2279 24.22 12.1943 24.22V22.22C10.5127 22.22 9.22241 21.8555 8.25293 21.2026L7.13573 22.8614ZM12.1943 24.22C13.7771 24.22 15.1443 23.9432 16.169 23.26L15.0596 21.5959C14.5004 21.9688 13.5875 22.22 12.1943 22.22V24.22ZM16.1576 23.2676C17.2264 22.576 17.8383 21.5676 17.8383 20.304H15.8383C15.8383 20.8164 15.6343 21.224 15.0711 21.5884L16.1576 23.2676ZM17.8383 20.304C17.8383 19.2636 17.5349 18.3254 16.8425 17.5983L15.3942 18.9777C15.6617 19.2586 15.8383 19.6644 15.8383 20.304H17.8383ZM16.8583 17.6153C16.1864 16.8763 15.1365 16.3919 13.8908 16.0614L13.3779 17.9946C14.4842 18.2881 15.0903 18.6437 15.3784 18.9607L16.8583 17.6153ZM13.9005 16.0641L9.07649 14.7321L8.54417 16.6599L13.3682 17.9919L13.9005 16.0641ZM9.08134 14.7334C6.69535 14.0616 5.07469 13.1792 4.09572 12.1595L2.65294 13.5445C3.97797 14.9248 5.98131 15.9384 8.53931 16.6586L9.08134 14.7334ZM4.10968 12.1743C3.16878 11.1533 2.68233 9.87903 2.68233 8.28H0.682328C0.682328 10.329 1.32388 12.1027 2.63897 13.5297L4.10968 12.1743ZM2.68233 8.28C2.68233 6.89749 3.03013 5.76064 3.68874 4.82263L2.05192 3.67337C1.12652 4.99135 0.682328 6.54251 0.682328 8.28H2.68233ZM3.68635 4.82602C4.37976 3.84709 5.3593 3.08229 6.66955 2.5453L5.9111 0.694694C4.29336 1.35771 2.9929 2.34491 2.0543 3.66998L3.68635 4.82602ZM6.68243 2.53992C7.99685 1.97968 9.57414 1.684 11.4383 1.684V-0.316C9.36652 -0.316 7.51181 0.0123205 5.89823 0.700075L6.68243 2.53992ZM11.4383 1.684C14.3065 1.684 16.4756 2.36563 18.0496 3.62487L19.299 2.06313C17.2731 0.442372 14.6181 -0.316 11.4383 -0.316V1.684ZM18.056 3.62995C19.6353 4.8723 20.526 6.50548 20.7395 8.59751L22.7292 8.39449C22.4626 5.78252 21.3134 3.64769 19.2926 2.05805L18.056 3.62995ZM21.7343 7.496H16.4063V9.496H21.7343V7.496ZM17.389 8.31059C17.1071 6.81658 16.3882 5.61932 15.182 4.84612L14.1027 6.52988C14.7685 6.95668 15.2256 7.63142 15.4237 8.68141L17.389 8.31059ZM15.1919 4.85258C14.0722 4.11589 12.6884 3.788 11.1143 3.788V5.788C12.4202 5.788 13.3885 6.06011 14.0927 6.52342L15.1919 4.85258ZM11.1143 3.788C9.74943 3.788 8.54324 4.04897 7.5842 4.6677L8.66846 6.3483C9.19742 6.00703 9.98322 5.788 11.1143 5.788V3.788ZM7.5842 4.6677C6.5837 5.31319 6.01033 6.26326 6.01033 7.452H8.01033C8.01033 7.00874 8.18096 6.66281 8.66846 6.3483L7.5842 4.6677ZM6.01033 7.452C6.01033 8.31314 6.29775 9.1013 6.83104 9.79145L8.41361 8.56855C8.13091 8.2027 8.01033 7.83886 8.01033 7.452H6.01033ZM6.84508 9.8092C7.46485 10.5748 8.59015 11.0727 9.91068 11.4395L10.446 9.51248C9.17451 9.1593 8.59581 8.79321 8.39957 8.5508L6.84508 9.8092ZM9.91217 11.4399L14.7362 12.7719L15.2685 10.8441L10.4445 9.51207L9.91217 11.4399ZM14.7384 12.7726C17.1988 13.4457 18.8114 14.3373 19.7318 15.3578L21.2169 14.0182C19.9293 12.5907 17.8939 11.5623 15.2662 10.8434L14.7384 12.7726ZM19.7457 15.3729C20.6776 16.3643 21.1663 17.6329 21.1663 19.26H23.1663C23.1663 17.1911 22.527 15.4117 21.203 14.0031L19.7457 15.3729ZM21.1663 19.26C21.1663 21.5914 20.3734 23.2704 18.8546 24.4449L20.0781 26.0271C22.1592 24.4176 23.1663 22.1126 23.1663 19.26H21.1663ZM18.8546 24.4449C17.2893 25.6555 15.0262 26.324 11.9423 26.324V28.324C15.2904 28.324 18.0434 27.6005 20.0781 26.0271L18.8546 24.4449ZM24.7707 27H23.7707V28H24.7707V27ZM24.7707 1.08V0.079999H23.7707V1.08H24.7707ZM30.3147 1.08H31.3147V0.079999H30.3147V1.08ZM30.3147 27V28H31.3147V27H30.3147ZM41.5467 27H40.5467V28H41.5467V27ZM41.5467 1.08V0.079999H40.5467V1.08H41.5467ZM47.0907 1.08H48.0907V0.079999H47.0907V1.08ZM47.0907 27V28H48.0907V27H47.0907ZM27.3627 11.376V10.376H26.3627V11.376H27.3627ZM44.0667 11.376H45.0667V10.376H44.0667V11.376ZM44.0667 15.624V16.624H45.0667V15.624H44.0667ZM27.3627 15.624H26.3627V16.624H27.3627V15.624ZM25.7707 27V1.08H23.7707V27H25.7707ZM24.7707 2.08H30.3147V0.079999H24.7707V2.08ZM29.3147 1.08V27H31.3147V1.08H29.3147ZM30.3147 26H24.7707V28H30.3147V26ZM42.5467 27V1.08H40.5467V27H42.5467ZM41.5467 2.08H47.0907V0.079999H41.5467V2.08ZM46.0907 1.08V27H48.0907V1.08H46.0907ZM47.0907 26H41.5467V28H47.0907V26ZM27.3627 12.376H44.0667V10.376H27.3627V12.376ZM43.0667 11.376V15.624H45.0667V11.376H43.0667ZM44.0667 14.624H27.3627V16.624H44.0667V14.624ZM28.3627 15.624V11.376H26.3627V15.624H28.3627ZM49.7449 27L48.8035 26.6627L48.3243 28H49.7449V27ZM59.0329 1.08V0.079999H58.3289L58.0915 0.742669L59.0329 1.08ZM63.7849 1.08L64.7347 1.39266L65.1668 0.079999H63.7849V1.08ZM55.2529 27V28H55.9765L56.2027 27.3127L55.2529 27ZM68.7529 27L67.8026 27.3115L68.0283 28H68.7529V27ZM60.2569 1.08V0.079999H58.8767L59.3066 1.39147L60.2569 1.08ZM65.2249 1.08L66.1662 0.742669L65.9288 0.079999H65.2249V1.08ZM74.5129 27V28H75.9335L75.4542 26.6627L74.5129 27ZM54.6409 16.956V15.956H53.6409V16.956H54.6409ZM69.1849 16.956H70.1849V15.956H69.1849V16.956ZM69.1849 21.276V22.276H70.1849V21.276H69.1849ZM54.6409 21.276H53.6409V22.276H54.6409V21.276ZM50.6862 27.3373L59.9742 1.41733L58.0915 0.742669L48.8035 26.6627L50.6862 27.3373ZM59.0329 2.08H63.7849V0.079999H59.0329V2.08ZM62.835 0.767335L54.303 26.6873L56.2027 27.3127L64.7347 1.39266L62.835 0.767335ZM55.2529 26H49.7449V28H55.2529V26ZM69.7031 26.6885L61.2071 0.768526L59.3066 1.39147L67.8026 27.3115L69.7031 26.6885ZM60.2569 2.08H65.2249V0.079999H60.2569V2.08ZM64.2835 1.41733L73.5715 27.3373L75.4542 26.6627L66.1662 0.742669L64.2835 1.41733ZM74.5129 26H68.7529V28H74.5129V26ZM54.6409 17.956H69.1849V15.956H54.6409V17.956ZM68.1849 16.956V21.276H70.1849V16.956H68.1849ZM69.1849 20.276H54.6409V22.276H69.1849V20.276ZM55.6409 21.276V16.956H53.6409V21.276H55.6409ZM76.5876 27H75.5876V28H76.5876V27ZM76.5876 1.08V0.079999H75.5876V1.08H76.5876ZM93.0756 2.052L92.6536 2.95858L92.6601 2.96159L92.6666 2.96451L93.0756 2.052ZM96.3156 4.716L95.4836 5.2707L96.3156 4.716ZM96.3156 12.744L97.1423 13.3068L97.1477 13.2987L96.3156 12.744ZM93.0756 15.408L93.4847 16.3205L93.4912 16.3176L93.4977 16.3146L93.0756 15.408ZM80.9796 16.344H79.9796V17.344H80.9796V16.344ZM80.9796 12.276V11.276H79.9796V12.276H80.9796ZM91.0596 11.376L91.7126 12.1334L91.7146 12.1317L91.0596 11.376ZM91.0956 6.228L90.4427 6.98541L90.4503 6.99198L90.4581 6.99839L91.0956 6.228ZM82.1316 5.328V4.328H81.1316V5.328H82.1316ZM82.1316 27V28H83.1316V27H82.1316ZM91.2036 27L90.4124 27.6114L90.7126 28H91.2036V27ZM80.7996 13.536V12.536H78.7631L80.0084 14.1474L80.7996 13.536ZM86.6676 13.536L87.4135 12.8699L87.1153 12.536H86.6676V13.536ZM98.6916 27V28H100.925L99.4375 26.3339L98.6916 27ZM77.5876 27V1.08H75.5876V27H77.5876ZM76.5876 2.08H88.1796V0.079999H76.5876V2.08ZM88.1796 2.08C89.9372 2.08 91.4195 2.38409 92.6536 2.95858L93.4977 1.14542C91.9478 0.423907 90.1661 0.079999 88.1796 0.079999V2.08ZM92.6666 2.96451C93.9048 3.51957 94.8306 4.29115 95.4836 5.2707L97.1477 4.1613C96.2647 2.83684 95.0305 1.83242 93.4847 1.13949L92.6666 2.96451ZM95.4836 5.2707C96.1303 6.2407 96.4676 7.38698 96.4676 8.748H98.4676C98.4676 7.03701 98.037 5.49529 97.1477 4.1613L95.4836 5.2707ZM96.4676 8.748C96.4676 10.0815 96.132 11.2167 95.4836 12.1893L97.1477 13.2987C98.0353 11.9673 98.4676 10.4385 98.4676 8.748H96.4676ZM95.489 12.1812C94.8347 13.1423 93.9032 13.9197 92.6536 14.5014L93.4977 16.3146C95.0321 15.6003 96.2606 14.6017 97.1422 13.3068L95.489 12.1812ZM92.6666 14.4955C91.429 15.0503 89.9419 15.344 88.1796 15.344V17.344C90.1614 17.344 91.9383 17.0137 93.4847 16.3205L92.6666 14.4955ZM88.1796 15.344H80.9796V17.344H88.1796V15.344ZM81.9796 16.344V12.276H79.9796V16.344H81.9796ZM80.9796 13.276H88.0356V11.276H80.9796V13.276ZM88.0356 13.276C89.4924 13.276 90.7699 12.9461 91.7126 12.1334L90.4067 10.6186C89.9574 11.0059 89.2189 11.276 88.0356 11.276V13.276ZM91.7146 12.1317C92.6895 11.2867 93.1396 10.127 93.1396 8.784H91.1396C91.1396 9.64898 90.8697 10.2173 90.4047 10.6203L91.7146 12.1317ZM93.1396 8.784C93.1396 7.43878 92.7145 6.26968 91.7332 5.45761L90.4581 6.99839C90.8688 7.33832 91.1396 7.87321 91.1396 8.784H93.1396ZM91.7486 5.47059C90.8031 4.65549 89.511 4.328 88.0356 4.328V6.328C89.2483 6.328 89.9962 6.6005 90.4427 6.98541L91.7486 5.47059ZM88.0356 4.328H82.1316V6.328H88.0356V4.328ZM81.1316 5.328V27H83.1316V5.328H81.1316ZM82.1316 26H76.5876V28H82.1316V26ZM91.9949 26.3886L81.5909 12.9246L80.0084 14.1474L90.4124 27.6114L91.9949 26.3886ZM80.7996 14.536H86.6676V12.536H80.7996V14.536ZM85.9218 14.2021L97.9458 27.6661L99.4375 26.3339L87.4135 12.8699L85.9218 14.2021ZM98.6916 26H91.2036V28H98.6916V26ZM100.779 27H99.7785V28H100.779V27ZM100.779 1.08V0.079999H99.7785V1.08H100.779ZM106.323 1.08H107.323V0.079999H106.323V1.08ZM106.323 27V28H107.323V27H106.323ZM103.371 27H102.371V28H103.371V27ZM103.371 22.752V21.752H102.371V22.752H103.371ZM120.075 22.752H121.075V21.752H120.075V22.752ZM120.075 27V28H121.075V27H120.075ZM103.371 15.84H102.371V16.84H103.371V15.84ZM103.371 11.664V10.664H102.371V11.664H103.371ZM118.815 11.664H119.815V10.664H118.815V11.664ZM118.815 15.84V16.84H119.815V15.84H118.815ZM103.371 5.328H102.371V6.328H103.371V5.328ZM103.371 1.08V0.079999H102.371V1.08H103.371ZM119.643 1.08H120.643V0.079999H119.643V1.08ZM119.643 5.328V6.328H120.643V5.328H119.643ZM101.779 27V1.08H99.7785V27H101.779ZM100.779 2.08H106.323V0.079999H100.779V2.08ZM105.323 1.08V27H107.323V1.08H105.323ZM106.323 26H100.779V28H106.323V26ZM104.371 27V22.752H102.371V27H104.371ZM103.371 23.752H120.075V21.752H103.371V23.752ZM119.075 22.752V27H121.075V22.752H119.075ZM120.075 26H103.371V28H120.075V26ZM104.371 15.84V11.664H102.371V15.84H104.371ZM103.371 12.664H118.815V10.664H103.371V12.664ZM117.815 11.664V15.84H119.815V11.664H117.815ZM118.815 14.84H103.371V16.84H118.815V14.84ZM104.371 5.328V1.08H102.371V5.328H104.371ZM103.371 2.08H119.643V0.079999H103.371V2.08ZM118.643 1.08V5.328H120.643V1.08H118.643ZM119.643 4.328H103.371V6.328H119.643V4.328Z" fill="black" fill-opacity="0.3" mask="url(#path-1-outside-1_0_1)"/>
<mask id="path-3-outside-2_0_1" maskUnits="userSpaceOnUse" x="-1" y="25" width="123" height="30" fill="black">
<rect fill="white" x="-1" y="25" width="123" height="30"/>
<path d="M11.9423 26.676C8.58233 26.676 5.89433 27.42 3.87833 28.908C1.86233 30.42 0.686328 32.544 0.350328 35.28H5.67833C5.84633 33.888 6.51833 32.784 7.69433 31.968C8.87033 31.176 10.3703 30.78 12.1943 30.78C13.6823 30.78 14.8223 31.044 15.6143 31.572C16.4303 32.1 16.8383 32.808 16.8383 33.696C16.8383 34.536 16.5983 35.208 16.1183 35.712C15.6383 36.24 14.8103 36.66 13.6343 36.972L8.81033 38.304C6.33833 39 4.52633 39.948 3.37433 41.148C2.24633 42.372 1.68233 43.896 1.68233 45.72C1.68233 47.28 2.07833 48.624 2.87033 49.752C3.68633 50.904 4.82633 51.78 6.29033 52.38C7.75433 53.004 9.47033 53.316 11.4383 53.316C14.4623 53.316 16.8743 52.596 18.6743 51.156C20.4743 49.74 21.4943 47.856 21.7343 45.504H16.4063C16.1663 46.776 15.5783 47.712 14.6423 48.312C13.7303 48.912 12.5543 49.212 11.1143 49.212C9.86633 49.212 8.87033 48.972 8.12633 48.492C7.38233 48.012 7.01033 47.364 7.01033 46.548C7.01033 45.924 7.21433 45.348 7.62233 44.82C8.03033 44.316 8.88233 43.884 10.1783 43.524L15.0023 42.192C17.5463 41.496 19.3703 40.536 20.4743 39.312C21.6023 38.112 22.1663 36.588 22.1663 34.74C22.1663 32.148 21.2663 30.156 19.4663 28.764C17.6663 27.372 15.1583 26.676 11.9423 26.676ZM24.7707 27V52.92H30.3147V27H24.7707ZM41.5467 27V52.92H47.0907V27H41.5467ZM27.3627 42.624H44.0667V38.376H27.3627V42.624ZM49.7449 27L59.0329 52.92H63.7849L55.2529 27H49.7449ZM68.7529 27L60.2569 52.92H65.2249L74.5129 27H68.7529ZM54.6409 37.044H69.1849V32.724H54.6409V37.044ZM76.5876 27V52.92H88.1796C90.0516 52.92 91.6836 52.596 93.0756 51.948C94.4676 51.324 95.5476 50.436 96.3156 49.284C97.0836 48.132 97.4676 46.788 97.4676 45.252C97.4676 43.74 97.0836 42.408 96.3156 41.256C95.5476 40.128 94.4676 39.24 93.0756 38.592C91.6836 37.968 90.0516 37.656 88.1796 37.656H80.9796V41.724H88.0356C89.3556 41.724 90.3636 42.024 91.0596 42.624C91.7796 43.248 92.1396 44.112 92.1396 45.216C92.1396 46.344 91.7916 47.196 91.0956 47.772C90.3996 48.372 89.3796 48.672 88.0356 48.672H82.1316V27H76.5876ZM91.2036 27L80.7996 40.464H86.6676L98.6916 27H91.2036ZM100.779 27V52.92H106.323V27H100.779ZM103.371 27V31.248H120.075V27H103.371ZM103.371 38.16V42.336H118.815V38.16H103.371ZM103.371 48.672V52.92H119.643V48.672H103.371Z"/>
</mask>
<path d="M11.9423 26.676C8.58233 26.676 5.89433 27.42 3.87833 28.908C1.86233 30.42 0.686328 32.544 0.350328 35.28H5.67833C5.84633 33.888 6.51833 32.784 7.69433 31.968C8.87033 31.176 10.3703 30.78 12.1943 30.78C13.6823 30.78 14.8223 31.044 15.6143 31.572C16.4303 32.1 16.8383 32.808 16.8383 33.696C16.8383 34.536 16.5983 35.208 16.1183 35.712C15.6383 36.24 14.8103 36.66 13.6343 36.972L8.81033 38.304C6.33833 39 4.52633 39.948 3.37433 41.148C2.24633 42.372 1.68233 43.896 1.68233 45.72C1.68233 47.28 2.07833 48.624 2.87033 49.752C3.68633 50.904 4.82633 51.78 6.29033 52.38C7.75433 53.004 9.47033 53.316 11.4383 53.316C14.4623 53.316 16.8743 52.596 18.6743 51.156C20.4743 49.74 21.4943 47.856 21.7343 45.504H16.4063C16.1663 46.776 15.5783 47.712 14.6423 48.312C13.7303 48.912 12.5543 49.212 11.1143 49.212C9.86633 49.212 8.87033 48.972 8.12633 48.492C7.38233 48.012 7.01033 47.364 7.01033 46.548C7.01033 45.924 7.21433 45.348 7.62233 44.82C8.03033 44.316 8.88233 43.884 10.1783 43.524L15.0023 42.192C17.5463 41.496 19.3703 40.536 20.4743 39.312C21.6023 38.112 22.1663 36.588 22.1663 34.74C22.1663 32.148 21.2663 30.156 19.4663 28.764C17.6663 27.372 15.1583 26.676 11.9423 26.676ZM24.7707 27V52.92H30.3147V27H24.7707ZM41.5467 27V52.92H47.0907V27H41.5467ZM27.3627 42.624H44.0667V38.376H27.3627V42.624ZM49.7449 27L59.0329 52.92H63.7849L55.2529 27H49.7449ZM68.7529 27L60.2569 52.92H65.2249L74.5129 27H68.7529ZM54.6409 37.044H69.1849V32.724H54.6409V37.044ZM76.5876 27V52.92H88.1796C90.0516 52.92 91.6836 52.596 93.0756 51.948C94.4676 51.324 95.5476 50.436 96.3156 49.284C97.0836 48.132 97.4676 46.788 97.4676 45.252C97.4676 43.74 97.0836 42.408 96.3156 41.256C95.5476 40.128 94.4676 39.24 93.0756 38.592C91.6836 37.968 90.0516 37.656 88.1796 37.656H80.9796V41.724H88.0356C89.3556 41.724 90.3636 42.024 91.0596 42.624C91.7796 43.248 92.1396 44.112 92.1396 45.216C92.1396 46.344 91.7916 47.196 91.0956 47.772C90.3996 48.372 89.3796 48.672 88.0356 48.672H82.1316V27H76.5876ZM91.2036 27L80.7996 40.464H86.6676L98.6916 27H91.2036ZM100.779 27V52.92H106.323V27H100.779ZM103.371 27V31.248H120.075V27H103.371ZM103.371 38.16V42.336H118.815V38.16H103.371ZM103.371 48.672V52.92H119.643V48.672H103.371Z" fill="#FAC92C" fill-opacity="0.9"/>
<path d="M3.87833 28.908L3.27831 28.108L3.28448 28.1034L3.87833 28.908ZM0.350328 35.28V36.28H-0.779992L-0.642215 35.1581L0.350328 35.28ZM5.67833 35.28L6.67112 35.3998L6.5649 36.28H5.67833V35.28ZM7.69433 31.968L7.12419 31.1463L7.13573 31.1386L7.69433 31.968ZM15.6143 31.572L15.071 32.4116L15.0596 32.4041L15.6143 31.572ZM16.1183 35.712L15.3784 35.0393L15.3862 35.0307L15.3942 35.0223L16.1183 35.712ZM13.6343 36.972L13.3682 36.008L13.3779 36.0054L13.6343 36.972ZM8.81033 38.304L8.53931 37.3414L8.54417 37.3401L8.81033 38.304ZM3.37433 41.148L2.63897 40.4703L2.64588 40.4628L2.65294 40.4555L3.37433 41.148ZM2.87033 49.752L2.0543 50.33L2.05192 50.3266L2.87033 49.752ZM6.29033 52.38L6.66959 51.4546L6.68243 51.4601L6.29033 52.38ZM18.6743 51.156L18.0496 50.3751L18.056 50.37L18.6743 51.156ZM21.7343 45.504V44.504H22.8416L22.7292 45.6055L21.7343 45.504ZM16.4063 45.504L15.4237 45.3186L15.5774 44.504H16.4063V45.504ZM14.6423 48.312L14.0927 47.4765L14.1027 47.4701L14.6423 48.312ZM8.12633 48.492L8.66846 47.6517L8.66846 47.6517L8.12633 48.492ZM7.62233 44.82L6.83104 44.2086L6.83796 44.1996L6.84508 44.1908L7.62233 44.82ZM10.1783 43.524L9.91068 42.5605L9.91217 42.5601L10.1783 43.524ZM15.0023 42.192L14.7362 41.2281L14.7384 41.2274L15.0023 42.192ZM20.4743 39.312L19.7318 38.6422L19.7387 38.6346L19.7457 38.6271L20.4743 39.312ZM19.4663 28.764L18.8546 29.5551H18.8546L19.4663 28.764ZM11.9423 27.676C8.72399 27.676 6.26607 28.3885 4.47218 29.7126L3.28448 28.1034C5.52259 26.4515 8.44067 25.676 11.9423 25.676V27.676ZM4.47833 29.708C2.7016 31.0405 1.64916 32.9078 1.34287 35.4019L-0.642215 35.1581C-0.276502 32.1802 1.02306 29.7995 3.27833 28.108L4.47833 29.708ZM0.350328 34.28H5.67833V36.28H0.350328V34.28ZM4.68553 35.1602C4.88856 33.4779 5.71919 32.1213 7.12425 31.1464L8.26441 32.7896C7.31747 33.4467 6.80409 34.2981 6.67112 35.3998L4.68553 35.1602ZM7.13573 31.1386C8.51824 30.2075 10.2279 29.78 12.1943 29.78V31.78C10.5127 31.78 9.22241 32.1445 8.25293 32.7974L7.13573 31.1386ZM12.1943 29.78C13.7771 29.78 15.1443 30.0568 16.169 30.74L15.0596 32.4041C14.5004 32.0312 13.5875 31.78 12.1943 31.78V29.78ZM16.1576 30.7324C17.2264 31.424 17.8383 32.4324 17.8383 33.696H15.8383C15.8383 33.1836 15.6343 32.776 15.0711 32.4116L16.1576 30.7324ZM17.8383 33.696C17.8383 34.7364 17.5349 35.6746 16.8425 36.4017L15.3942 35.0223C15.6617 34.7414 15.8383 34.3356 15.8383 33.696H17.8383ZM16.8583 36.3847C16.1864 37.1237 15.1365 37.6081 13.8908 37.9386L13.3779 36.0054C14.4842 35.7119 15.0903 35.3563 15.3784 35.0393L16.8583 36.3847ZM13.9005 37.9359L9.07649 39.2679L8.54417 37.3401L13.3682 36.0081L13.9005 37.9359ZM9.08134 39.2666C6.69535 39.9384 5.07469 40.8208 4.09572 41.8405L2.65294 40.4555C3.97797 39.0752 5.98131 38.0616 8.53931 37.3414L9.08134 39.2666ZM4.10968 41.8257C3.16878 42.8467 2.68233 44.121 2.68233 45.72H0.682328C0.682328 43.671 1.32388 41.8973 2.63897 40.4703L4.10968 41.8257ZM2.68233 45.72C2.68233 47.1025 3.03013 48.2394 3.68874 49.1774L2.05192 50.3266C1.12652 49.0086 0.682328 47.4575 0.682328 45.72H2.68233ZM3.68635 49.174C4.37976 50.1529 5.3593 50.9177 6.66955 51.4547L5.9111 53.3053C4.29336 52.6423 2.9929 51.6551 2.0543 50.33L3.68635 49.174ZM6.68243 51.4601C7.99685 52.0203 9.57414 52.316 11.4383 52.316V54.316C9.36652 54.316 7.51181 53.9877 5.89823 53.2999L6.68243 51.4601ZM11.4383 52.316C14.3065 52.316 16.4756 51.6344 18.0496 50.3751L19.299 51.9369C17.2731 53.5576 14.6181 54.316 11.4383 54.316V52.316ZM18.056 50.37C19.6353 49.1277 20.526 47.4945 20.7395 45.4025L22.7292 45.6055C22.4626 48.2175 21.3134 50.3523 19.2926 51.942L18.056 50.37ZM21.7343 46.504H16.4063V44.504H21.7343V46.504ZM17.389 45.6894C17.1071 47.1834 16.3882 48.3807 15.182 49.1539L14.1027 47.4701C14.7685 47.0433 15.2256 46.3686 15.4237 45.3186L17.389 45.6894ZM15.1919 49.1474C14.0722 49.8841 12.6884 50.212 11.1143 50.212V48.212C12.4202 48.212 13.3885 47.9399 14.0927 47.4766L15.1919 49.1474ZM11.1143 50.212C9.74943 50.212 8.54324 49.951 7.5842 49.3323L8.66846 47.6517C9.19742 47.993 9.98322 48.212 11.1143 48.212V50.212ZM7.5842 49.3323C6.5837 48.6868 6.01033 47.7367 6.01033 46.548H8.01033C8.01033 46.9913 8.18096 47.3372 8.66846 47.6517L7.5842 49.3323ZM6.01033 46.548C6.01033 45.6869 6.29775 44.8987 6.83104 44.2086L8.41361 45.4314C8.13091 45.7973 8.01033 46.1611 8.01033 46.548H6.01033ZM6.84508 44.1908C7.46485 43.4252 8.59015 42.9273 9.91068 42.5605L10.446 44.4875C9.17451 44.8407 8.59581 45.2068 8.39957 45.4492L6.84508 44.1908ZM9.91217 42.5601L14.7362 41.2281L15.2685 43.1559L10.4445 44.4879L9.91217 42.5601ZM14.7384 41.2274C17.1988 40.5543 18.8114 39.6627 19.7318 38.6422L21.2169 39.9818C19.9293 41.4093 17.8939 42.4377 15.2662 43.1566L14.7384 41.2274ZM19.7457 38.6271C20.6776 37.6357 21.1663 36.3671 21.1663 34.74H23.1663C23.1663 36.8089 22.527 38.5883 21.203 39.9969L19.7457 38.6271ZM21.1663 34.74C21.1663 32.4086 20.3734 30.7296 18.8546 29.5551L20.0781 27.9729C22.1592 29.5824 23.1663 31.8874 23.1663 34.74H21.1663ZM18.8546 29.5551C17.2893 28.3445 15.0262 27.676 11.9423 27.676V25.676C15.2904 25.676 18.0434 26.3995 20.0781 27.9729L18.8546 29.5551ZM24.7707 27H23.7707V26H24.7707V27ZM24.7707 52.92V53.92H23.7707V52.92H24.7707ZM30.3147 52.92H31.3147V53.92H30.3147V52.92ZM30.3147 27V26H31.3147V27H30.3147ZM41.5467 27H40.5467V26H41.5467V27ZM41.5467 52.92V53.92H40.5467V52.92H41.5467ZM47.0907 52.92H48.0907V53.92H47.0907V52.92ZM47.0907 27V26H48.0907V27H47.0907ZM27.3627 42.624V43.624H26.3627V42.624H27.3627ZM44.0667 42.624H45.0667V43.624H44.0667V42.624ZM44.0667 38.376V37.376H45.0667V38.376H44.0667ZM27.3627 38.376H26.3627V37.376H27.3627V38.376ZM25.7707 27V52.92H23.7707V27H25.7707ZM24.7707 51.92H30.3147V53.92H24.7707V51.92ZM29.3147 52.92V27H31.3147V52.92H29.3147ZM30.3147 28H24.7707V26H30.3147V28ZM42.5467 27V52.92H40.5467V27H42.5467ZM41.5467 51.92H47.0907V53.92H41.5467V51.92ZM46.0907 52.92V27H48.0907V52.92H46.0907ZM47.0907 28H41.5467V26H47.0907V28ZM27.3627 41.624H44.0667V43.624H27.3627V41.624ZM43.0667 42.624V38.376H45.0667V42.624H43.0667ZM44.0667 39.376H27.3627V37.376H44.0667V39.376ZM28.3627 38.376V42.624H26.3627V38.376H28.3627ZM49.7449 27L48.8035 27.3373L48.3243 26H49.7449V27ZM59.0329 52.92V53.92H58.3289L58.0915 53.2573L59.0329 52.92ZM63.7849 52.92L64.7347 52.6073L65.1668 53.92H63.7849V52.92ZM55.2529 27V26H55.9765L56.2027 26.6873L55.2529 27ZM68.7529 27L67.8026 26.6885L68.0283 26H68.7529V27ZM60.2569 52.92V53.92H58.8767L59.3066 52.6085L60.2569 52.92ZM65.2249 52.92L66.1662 53.2573L65.9288 53.92H65.2249V52.92ZM74.5129 27V26H75.9335L75.4542 27.3373L74.5129 27ZM54.6409 37.044V38.044H53.6409V37.044H54.6409ZM69.1849 37.044H70.1849V38.044H69.1849V37.044ZM69.1849 32.724V31.724H70.1849V32.724H69.1849ZM54.6409 32.724H53.6409V31.724H54.6409V32.724ZM50.6862 26.6627L59.9742 52.5827L58.0915 53.2573L48.8035 27.3373L50.6862 26.6627ZM59.0329 51.92H63.7849V53.92H59.0329V51.92ZM62.835 53.2327L54.303 27.3127L56.2027 26.6873L64.7347 52.6073L62.835 53.2327ZM55.2529 28H49.7449V26H55.2529V28ZM69.7031 27.3115L61.2071 53.2315L59.3066 52.6085L67.8026 26.6885L69.7031 27.3115ZM60.2569 51.92H65.2249V53.92H60.2569V51.92ZM64.2835 52.5827L73.5715 26.6627L75.4542 27.3373L66.1662 53.2573L64.2835 52.5827ZM74.5129 28H68.7529V26H74.5129V28ZM54.6409 36.044H69.1849V38.044H54.6409V36.044ZM68.1849 37.044V32.724H70.1849V37.044H68.1849ZM69.1849 33.724H54.6409V31.724H69.1849V33.724ZM55.6409 32.724V37.044H53.6409V32.724H55.6409ZM76.5876 27H75.5876V26H76.5876V27ZM76.5876 52.92V53.92H75.5876V52.92H76.5876ZM93.0756 51.948L92.6536 51.0414L92.6601 51.0384L92.6666 51.0355L93.0756 51.948ZM96.3156 49.284L95.4836 48.7293L96.3156 49.284ZM96.3156 41.256L97.1423 40.6932L97.1477 40.7013L96.3156 41.256ZM93.0756 38.592L93.4847 37.6795L93.4912 37.6824L93.4977 37.6854L93.0756 38.592ZM80.9796 37.656H79.9796V36.656H80.9796V37.656ZM80.9796 41.724V42.724H79.9796V41.724H80.9796ZM91.0596 42.624L91.7126 41.8666L91.7146 41.8683L91.0596 42.624ZM91.0956 47.772L90.4427 47.0146L90.4503 47.008L90.4581 47.0016L91.0956 47.772ZM82.1316 48.672V49.672H81.1316V48.672H82.1316ZM82.1316 27V26H83.1316V27H82.1316ZM91.2036 27L90.4124 26.3886L90.7126 26H91.2036V27ZM80.7996 40.464V41.464H78.7631L80.0084 39.8526L80.7996 40.464ZM86.6676 40.464L87.4135 41.1301L87.1153 41.464H86.6676V40.464ZM98.6916 27V26H100.925L99.4375 27.6661L98.6916 27ZM77.5876 27V52.92H75.5876V27H77.5876ZM76.5876 51.92H88.1796V53.92H76.5876V51.92ZM88.1796 51.92C89.9372 51.92 91.4195 51.6159 92.6536 51.0414L93.4977 52.8546C91.9478 53.5761 90.1661 53.92 88.1796 53.92V51.92ZM92.6666 51.0355C93.9048 50.4804 94.8306 49.7088 95.4836 48.7293L97.1477 49.8387C96.2647 51.1632 95.0305 52.1676 93.4847 52.8605L92.6666 51.0355ZM95.4836 48.7293C96.1303 47.7593 96.4676 46.613 96.4676 45.252H98.4676C98.4676 46.963 98.037 48.5047 97.1477 49.8387L95.4836 48.7293ZM96.4676 45.252C96.4676 43.9185 96.132 42.7833 95.4836 41.8107L97.1477 40.7013C98.0353 42.0327 98.4676 43.5615 98.4676 45.252H96.4676ZM95.489 41.8188C94.8347 40.8577 93.9032 40.0803 92.6536 39.4986L93.4977 37.6854C95.0321 38.3997 96.2606 39.3983 97.1422 40.6932L95.489 41.8188ZM92.6666 39.5045C91.429 38.9497 89.9419 38.656 88.1796 38.656V36.656C90.1614 36.656 91.9383 36.9863 93.4847 37.6795L92.6666 39.5045ZM88.1796 38.656H80.9796V36.656H88.1796V38.656ZM81.9796 37.656V41.724H79.9796V37.656H81.9796ZM80.9796 40.724H88.0356V42.724H80.9796V40.724ZM88.0356 40.724C89.4924 40.724 90.7699 41.0539 91.7126 41.8666L90.4067 43.3814C89.9574 42.9941 89.2189 42.724 88.0356 42.724V40.724ZM91.7146 41.8683C92.6895 42.7133 93.1396 43.873 93.1396 45.216H91.1396C91.1396 44.351 90.8697 43.7827 90.4047 43.3797L91.7146 41.8683ZM93.1396 45.216C93.1396 46.5612 92.7145 47.7303 91.7332 48.5424L90.4581 47.0016C90.8688 46.6617 91.1396 46.1268 91.1396 45.216H93.1396ZM91.7486 48.5294C90.8031 49.3445 89.511 49.672 88.0356 49.672V47.672C89.2483 47.672 89.9962 47.3995 90.4427 47.0146L91.7486 48.5294ZM88.0356 49.672H82.1316V47.672H88.0356V49.672ZM81.1316 48.672V27H83.1316V48.672H81.1316ZM82.1316 28H76.5876V26H82.1316V28ZM91.9949 27.6114L81.5909 41.0754L80.0084 39.8526L90.4124 26.3886L91.9949 27.6114ZM80.7996 39.464H86.6676V41.464H80.7996V39.464ZM85.9218 39.7979L97.9458 26.3339L99.4375 27.6661L87.4135 41.1301L85.9218 39.7979ZM98.6916 28H91.2036V26H98.6916V28ZM100.779 27H99.7785V26H100.779V27ZM100.779 52.92V53.92H99.7785V52.92H100.779ZM106.323 52.92H107.323V53.92H106.323V52.92ZM106.323 27V26H107.323V27H106.323ZM103.371 27H102.371V26H103.371V27ZM103.371 31.248V32.248H102.371V31.248H103.371ZM120.075 31.248H121.075V32.248H120.075V31.248ZM120.075 27V26H121.075V27H120.075ZM103.371 38.16H102.371V37.16H103.371V38.16ZM103.371 42.336V43.336H102.371V42.336H103.371ZM118.815 42.336H119.815V43.336H118.815V42.336ZM118.815 38.16V37.16H119.815V38.16H118.815ZM103.371 48.672H102.371V47.672H103.371V48.672ZM103.371 52.92V53.92H102.371V52.92H103.371ZM119.643 52.92H120.643V53.92H119.643V52.92ZM119.643 48.672V47.672H120.643V48.672H119.643ZM101.779 27V52.92H99.7785V27H101.779ZM100.779 51.92H106.323V53.92H100.779V51.92ZM105.323 52.92V27H107.323V52.92H105.323ZM106.323 28H100.779V26H106.323V28ZM104.371 27V31.248H102.371V27H104.371ZM103.371 30.248H120.075V32.248H103.371V30.248ZM119.075 31.248V27H121.075V31.248H119.075ZM120.075 28H103.371V26H120.075V28ZM104.371 38.16V42.336H102.371V38.16H104.371ZM103.371 41.336H118.815V43.336H103.371V41.336ZM117.815 42.336V38.16H119.815V42.336H117.815ZM118.815 39.16H103.371V37.16H118.815V39.16ZM104.371 48.672V52.92H102.371V48.672H104.371ZM103.371 51.92H119.643V53.92H103.371V51.92ZM118.643 52.92V48.672H120.643V52.92H118.643ZM119.643 49.672H103.371V47.672H119.643V49.672Z" fill="black" fill-opacity="0.2" mask="url(#path-3-outside-2_0_1)"/>
</svg>
