<svg width="63" height="63" viewBox="0 0 63 63" fill="none" xmlns="http://www.w3.org/2000/svg">
<g filter="url(#filter0_d_0_1)">
<circle cx="31.5" cy="27.5" r="27.5" fill="#FAC92C"/>
<circle cx="31.5" cy="27.5" r="27" stroke="black" stroke-opacity="0.3"/>
</g>
<path d="M42 24.6667H35.3333V18.0001C35.3333 17.116 34.9821 16.2682 34.357 15.6431C33.7319 15.0179 32.884 14.6667 32 14.6667C31.1159 14.6667 30.2681 15.0179 29.643 15.6431C29.0178 16.2682 28.6667 17.116 28.6667 18.0001L28.785 24.6667H22C21.1159 24.6667 20.2681 25.0179 19.643 25.6431C19.0178 26.2682 18.6667 27.116 18.6667 28.0001C18.6667 28.8841 19.0178 29.732 19.643 30.3571C20.2681 30.9822 21.1159 31.3334 22 31.3334L28.785 31.2151L28.6667 38.0001C28.6667 38.8841 29.0178 39.732 29.643 40.3571C30.2681 40.9822 31.1159 41.3334 32 41.3334C32.884 41.3334 33.7319 40.9822 34.357 40.3571C34.9821 39.732 35.3333 38.8841 35.3333 38.0001V31.2151L42 31.3334C42.884 31.3334 43.7319 30.9822 44.357 30.3571C44.9821 29.732 45.3333 28.8841 45.3333 28.0001C45.3333 27.116 44.9821 26.2682 44.357 25.6431C43.7319 25.0179 42.884 24.6667 42 24.6667Z" fill="#F24822"/>
<defs>
<filter id="filter0_d_0_1" x="0" y="0" width="63" height="63" filterUnits="userSpaceOnUse" color-interpolation-filters="sRGB">
<feFlood flood-opacity="0" result="BackgroundImageFix"/>
<feColorMatrix in="SourceAlpha" type="matrix" values="0 0 0 0 0 0 0 0 0 0 0 0 0 0 0 0 0 0 127 0" result="hardAlpha"/>
<feOffset dy="4"/>
<feGaussianBlur stdDeviation="2"/>
<feComposite in2="hardAlpha" operator="out"/>
<feColorMatrix type="matrix" values="0 0 0 0 0 0 0 0 0 0 0 0 0 0 0 0 0 0 0.25 0"/>
<feBlend mode="normal" in2="BackgroundImageFix" result="effect1_dropShadow_0_1"/>
<feBlend mode="normal" in="SourceGraphic" in2="effect1_dropShadow_0_1" result="shape"/>
</filter>
</defs>
</svg>
