<svg width="26" height="31" viewBox="0 0 26 31" fill="none" xmlns="http://www.w3.org/2000/svg">
<path d="M5.9636 22.1432C3.79402 20.6743 2.1679 18.5804 1.32084 16.1649C0.473792 13.7493 0.449802 11.1376 1.25235 8.70809C2.0549 6.27858 3.6423 4.15747 5.78457 2.65208C7.92684 1.14669 10.5127 0.335205 13.1675 0.335205C15.8223 0.335205 18.4082 1.14669 20.5505 2.65208C22.6927 4.15747 24.2801 6.27858 25.0827 8.70809C25.8852 11.1376 25.8612 13.7493 25.0142 16.1649C24.1671 18.5804 22.541 20.6743 20.3714 22.1432L23.6261 29.2836C23.6784 29.3979 23.7001 29.523 23.6893 29.6474C23.6785 29.7718 23.6356 29.8916 23.5644 29.996C23.4931 30.1005 23.3959 30.1862 23.2814 30.2454C23.167 30.3046 23.0389 30.3355 22.9089 30.3352H3.42454C3.29472 30.3354 3.1669 30.3045 3.05263 30.2454C2.93836 30.1862 2.84124 30.1007 2.77006 29.9964C2.69887 29.8922 2.65586 29.7726 2.64491 29.6484C2.63397 29.5242 2.65543 29.3994 2.70736 29.2851L5.9636 22.1432ZM7.10267 13.7892C7.44203 15.0867 8.22307 16.2382 9.32182 17.061C10.4206 17.8837 11.7741 18.3305 13.1675 18.3305C14.5609 18.3305 15.9144 17.8837 17.0132 17.061C18.112 16.2382 18.893 15.0867 19.2324 13.7892L16.1995 13.0617C16.0313 13.7118 15.6413 14.2891 15.0917 14.7017C14.5421 15.1144 13.8644 15.3385 13.1667 15.3385C12.469 15.3385 11.7914 15.1144 11.2417 14.7017C10.6921 14.2891 10.3021 13.7118 10.1339 13.0617L7.10267 13.7892Z" fill="#EF3C23"/>
</svg>
